<?xml version="1.0" encoding="utf-8"?>
<!-- Generator: Adobe Illustrator 23.0.4, SVG Export Plug-In . SVG Version: 6.00 Build 0)  -->
<svg version="1.1" id="Layer_1" xmlns="http://www.w3.org/2000/svg" xmlns:xlink="http://www.w3.org/1999/xlink" x="0px" y="0px"
	 viewBox="0 0 32 32" style="enable-background:new 0 0 32 32;" xml:space="preserve">

<path fill="#EBEDEE" id="number-one-path" class="st0" d="M0,16c0,8.8,7.2,16,16,16s16-7.2,16-16S24.8,0,16,0S0,7.2,0,16z"/>
<path fill="#FFF" class="st1" d="M16.9,9.2c-0.4-0.2-0.8-0.1-1.1,0.2l-3.2,3.2c-0.4,0.4-0.4,1.1,0,1.5c0.4,0.4,1.1,0.4,1.5,0l1.4-1.4v9.2
	c0,0.6,0.5,1,1,1c0.6,0,1-0.5,1-1V10.1C17.6,9.7,17.3,9.3,16.9,9.2z"/>
</svg>
